<svg id="svg" fill="#000000" stroke="#000000" width="200px" height="200px" version="1.1" viewBox="144 144 512 512" xmlns="http://www.w3.org/2000/svg">
    <g id="IconSvg_bgCarrier" stroke-width="0"></g>
    <g id="IconSvg_tracerCarrier" stroke-linecap="round" stroke-linejoin="round" stroke="#CCCCCC"></g>
     <g id="IconSvg_iconCarrier">
      <g xmlns="http://www.w3.org/2000/svg">
  <path d="m366.23 167.77h-155.16c-11.477 0.019531-22.477 4.5898-30.594 12.703-8.1133 8.1172-12.684 19.117-12.703 30.594v155.16c0 6.5234 5.2852 11.809 11.809 11.809h155.16c11.484 0 22.496-4.5625 30.617-12.68 8.1172-8.1211 12.68-19.133 12.68-30.617v-155.16c0-6.5234-5.2852-11.809-11.809-11.809z"></path>
  <path d="m588.93 167.77h-155.16c-6.5195 0-11.809 5.2852-11.809 11.809v155.16c0 11.484 4.5625 22.496 12.684 30.617 8.1172 8.1172 19.129 12.68 30.613 12.68h155.16c6.5234 0 11.809-5.2852 11.809-11.809v-155.16c-0.019531-11.477-4.5898-22.477-12.703-30.594-8.1172-8.1133-19.117-12.684-30.594-12.703z"></path>
  <path d="m334.74 421.96h-155.16c-6.5234 0-11.809 5.2891-11.809 11.809v155.16c0.019531 11.477 4.5898 22.477 12.703 30.594 8.1172 8.1133 19.117 12.684 30.594 12.703h155.16c6.5234 0 11.809-5.2852 11.809-11.809v-155.16c0-11.484-4.5625-22.496-12.68-30.613-8.1211-8.1211-19.133-12.684-30.617-12.684z"></path>
  <path d="m620.41 421.96h-155.16c-11.484 0-22.496 4.5625-30.613 12.684-8.1211 8.1172-12.684 19.129-12.684 30.613v155.16c0 6.5234 5.2891 11.809 11.809 11.809h155.16c11.477-0.019531 22.477-4.5898 30.594-12.703 8.1133-8.1172 12.684-19.117 12.703-30.594v-155.16c0-6.5195-5.2852-11.809-11.809-11.809z"></path>
 </g>

      </g>
      </svg>